<?xml version="1.0" encoding="UTF-8" standalone="no"?>
<!-- Created with Inkscape (http://www.inkscape.org/) -->

<svg
   width="128"
   height="128"
   viewBox="0 0 128 128"
   version="1.1"
   id="svg5"
   inkscape:version="1.1.1 (3bf5ae0d25, 2021-09-20)"
   sodipodi:docname="hanme-taja.svg"
   xmlns:inkscape="http://www.inkscape.org/namespaces/inkscape"
   xmlns:sodipodi="http://sodipodi.sourceforge.net/DTD/sodipodi-0.dtd"
   xmlns:xlink="http://www.w3.org/1999/xlink"
   xmlns="http://www.w3.org/2000/svg"
   xmlns:svg="http://www.w3.org/2000/svg">
  <sodipodi:namedview
     id="namedview7"
     pagecolor="#ffffff"
     bordercolor="#000000"
     borderopacity="0.25"
     inkscape:showpageshadow="2"
     inkscape:pageopacity="0.0"
     inkscape:pagecheckerboard="0"
     inkscape:deskcolor="#d1d1d1"
     inkscape:document-units="px"
     showgrid="false"
     inkscape:zoom="2.1931359"
     inkscape:cx="67.255294"
     inkscape:cy="82.302241"
     inkscape:window-width="959"
     inkscape:window-height="1019"
     inkscape:window-x="0"
     inkscape:window-y="33"
     inkscape:window-maximized="0"
     inkscape:current-layer="svg5"
     showguides="false"
     inkscape:pageshadow="2" />
  <defs
     id="defs2">
    <linearGradient
       inkscape:collect="always"
       xlink:href="#linearGradient1144"
       id="linearGradient3500"
       x1="2"
       y1="2"
       x2="30"
       y2="30"
       gradientUnits="userSpaceOnUse"
       gradientTransform="scale(4)" />
    <linearGradient
       inkscape:collect="always"
       id="linearGradient1144">
      <stop
         style="stop-color:#adb2b9;stop-opacity:1;"
         offset="0"
         id="stop1140" />
      <stop
         style="stop-color:#e0e2e4;stop-opacity:1;"
         offset="1"
         id="stop1142" />
    </linearGradient>
  </defs>
  <path
     d="M 52,9 C 15.595238,9 8,16.759268 8,53 v 24 c 0,36.24073 7.595238,44 44,44 h 24 c 36.40476,0 44,-7.75927 44,-44 V 53 C 120,16.759268 112.40476,9 76,9"
     style="opacity:0.2;fill:#000000;stroke-width:4;stroke-linecap:round;stroke-linejoin:round"
     id="path563" />
  <path
     d="M 52,8 C 15.595238,8 8,15.759268 8,52 v 24 c 0,36.24073 7.595238,44 44,44 h 24 c 36.40476,0 44,-7.75927 44,-44 V 52 C 120,15.759268 112.40476,8 76,8"
     style="fill:url(#linearGradient3500);fill-opacity:1;stroke-width:4;stroke-linecap:round;stroke-linejoin:round"
     id="path530"
     sodipodi:nodetypes="cssssssc" />
  <g
     id="g80"
     transform="matrix(1.2419476,0,0,1.2578763,4.9901085,2.7145504)">
    <path
       style="fill:#28b5f5;fill-opacity:1;fill-rule:nonzero;stroke:none"
       d="M 69.988281,39.511719 H 66.136719 V 33 C 66.09375,31.285156 64.714844,29.90625 63,29.863281 H 36.136719 c -3.882813,-0.0078 -7.027344,-3.152343 -7.035157,-7.035156 V 19.5 H 33 v 3.375 c 0,1.757812 1.421875,3.179688 3.179688,3.179688 H 63 c 3.890625,0.0078 7.042969,3.160156 7.050781,7.050781 z m 0,0"
       id="path4" />
    <path
       style="fill:#ffffff;fill-opacity:1;fill-rule:nonzero;stroke:none"
       d="M 74.804688,37.199219 H 21.195312 c -2.238281,0 -4.050781,1.8125 -4.050781,4.050781 v 31.246094 c 0,2.234375 1.8125,4.050781 4.050781,4.050781 h 53.609376 c 2.238281,0 4.050781,-1.816406 4.050781,-4.050781 V 41.25 c 0,-2.238281 -1.8125,-4.050781 -4.050781,-4.050781 z m 0,0"
       id="path6" />
    <path
       style="fill:#cacaca;fill-opacity:1;fill-rule:nonzero;stroke:none"
       d="M 62.714844,62.789062 H 33.253906 c -0.511718,0 -1,0.207032 -1.363281,0.570313 -0.359375,0.363281 -0.558594,0.855469 -0.554687,1.367187 V 67.125 c 0.02344,1.042969 0.875,1.875 1.917968,1.875 h 29.460938 c 0.511718,0.0039 1.003906,-0.195312 1.367187,-0.558594 0.363281,-0.359375 0.566407,-0.847656 0.566407,-1.363281 v -2.398437 c 0,-1.066407 -0.863282,-1.933594 -1.933594,-1.933594 z m 0,0"
       id="path8" />
    <path
       style="fill:#eb3f78;fill-opacity:1;fill-rule:nonzero;stroke:none"
       d="m 27.316406,62.789062 h -1.351562 c -0.519532,-0.0078 -1.019532,0.191407 -1.386719,0.558594 C 24.207031,63.710938 24,64.207031 24,64.726562 V 67.125 c 0.02344,1.058594 0.90625,1.898438 1.964844,1.875 h 1.351562 c 0.511719,0.0039 1.003906,-0.195312 1.367188,-0.558594 C 29.046875,68.082031 29.25,67.59375 29.25,67.078125 v -2.398437 c 0,-1.066407 -0.867188,-1.933594 -1.933594,-1.933594 z m 0,0"
       id="path10" />
    <path
       style="fill:#cacaca;fill-opacity:1;fill-rule:nonzero;stroke:none"
       d="M 70.363281,62.789062 H 69 c -1.070312,0 -1.933594,0.867188 -1.933594,1.9375 V 67.125 C 67.089844,68.171875 67.949219,69.007812 69,69 h 1.351562 c 0.511719,0.0039 1.003907,-0.195312 1.367188,-0.558594 0.363281,-0.359375 0.566406,-0.847656 0.566406,-1.363281 v -2.398437 c 0,-1.066407 -0.867187,-1.933594 -1.933594,-1.933594 z m 0,0"
       id="path12" />
    <path
       style="fill:#cacaca;fill-opacity:1;fill-rule:nonzero;stroke:none"
       d="m 41.128906,53.863281 h -1.363281 c -1.0625,0 -1.921875,0.863281 -1.921875,1.921875 v 2.398438 c -0.0039,0.511718 0.199219,1.003906 0.558594,1.367187 0.359375,0.363281 0.851562,0.570313 1.363281,0.570313 h 1.363281 c 0.511719,0 1.003906,-0.207032 1.363282,-0.570313 0.359374,-0.363281 0.5625,-0.855469 0.558593,-1.367187 v -2.398438 c 0,-1.058594 -0.859375,-1.921875 -1.921875,-1.921875 z m 0,0"
       id="path14" />
    <path
       style="fill:#eb3f78;fill-opacity:1;fill-rule:nonzero;stroke:none"
       d="m 34.289062,53.863281 h -8.324218 c -0.515625,-0.01172 -1.015625,0.1875 -1.386719,0.546875 C 24.207031,54.773438 24,55.269531 24,55.785156 v 2.398438 c 0,1.070312 0.867188,1.9375 1.933594,1.9375 h 8.328125 c 1.066406,0 1.933593,-0.867188 1.933593,-1.9375 v -2.398438 c 0,-0.511718 -0.203124,-1.003906 -0.566406,-1.363281 -0.363281,-0.359375 -0.855468,-0.5625 -1.367187,-0.558594 z m 0,0"
       id="path16" />
    <path
       style="fill:#cacaca;fill-opacity:1;fill-rule:nonzero;stroke:none"
       d="m 48.433594,53.863281 h -1.347656 c -0.511719,-0.0039 -1.003907,0.199219 -1.367188,0.558594 -0.363281,0.359375 -0.570312,0.851563 -0.570312,1.363281 v 2.398438 c 0,1.070312 0.867187,1.9375 1.9375,1.9375 h 1.347656 c 1.070312,0 1.9375,-0.867188 1.9375,-1.9375 v -2.398438 c 0,-0.511718 -0.207032,-1.003906 -0.570313,-1.363281 -0.363281,-0.359375 -0.855469,-0.5625 -1.367187,-0.558594 z m 0,0"
       id="path18" />
    <path
       style="fill:#cacaca;fill-opacity:1;fill-rule:nonzero;stroke:none"
       d="M 55.753906,53.863281 H 54.390625 C 53.339844,53.882812 52.5,54.734375 52.5,55.785156 v 2.398438 c -0.0039,0.511718 0.195312,1.003906 0.558594,1.367187 0.359375,0.363281 0.847656,0.570313 1.363281,0.570313 h 1.363281 c 0.511719,0 1.003906,-0.207032 1.363282,-0.570313 0.359374,-0.363281 0.5625,-0.855469 0.554687,-1.367187 v -2.398438 c 0,-1.058594 -0.859375,-1.921875 -1.917969,-1.921875 z m 0,0"
       id="path20" />
    <path
       style="fill:#cacaca;fill-opacity:1;fill-rule:nonzero;stroke:none"
       d="m 63,53.863281 h -1.351562 c -0.511719,-0.0039 -1.003907,0.199219 -1.367188,0.558594 -0.363281,0.359375 -0.566406,0.851563 -0.566406,1.363281 v 2.398438 c 0,1.070312 0.867187,1.9375 1.933594,1.9375 H 63 c 1.070312,0 1.933594,-0.867188 1.933594,-1.9375 v -2.398438 c 0,-0.511718 -0.203125,-1.003906 -0.566406,-1.363281 C 64.003906,54.0625 63.511719,53.859375 63,53.863281 Z m 0,0"
       id="path22" />
    <path
       style="fill:#cacaca;fill-opacity:1;fill-rule:nonzero;stroke:none"
       d="M 70.363281,53.863281 H 69 c -0.511719,-0.0039 -1.003906,0.199219 -1.367188,0.558594 -0.363281,0.359375 -0.566406,0.851563 -0.566406,1.363281 v 2.398438 c 0,1.070312 0.863282,1.9375 1.933594,1.9375 h 1.351562 c 1.066407,0 1.933594,-0.867188 1.933594,-1.9375 v -2.398438 c 0,-0.511718 -0.203125,-1.003906 -0.566406,-1.363281 -0.363281,-0.359375 -0.855469,-0.5625 -1.367188,-0.558594 z m 0,0"
       id="path24" />
    <path
       style="fill:#cacaca;fill-opacity:1;fill-rule:nonzero;stroke:none"
       d="m 37.066406,45 h -1.351562 c -0.511719,-0.0039 -1.003906,0.195312 -1.367188,0.558594 -0.363281,0.359375 -0.566406,0.847656 -0.566406,1.363281 v 2.398437 c 0,1.066407 0.863281,1.933594 1.933594,1.933594 h 1.351562 c 0.523438,0 1.027344,-0.210937 1.394532,-0.59375 C 38.824219,50.28125 39.019531,49.769531 39,49.246094 V 46.84375 C 38.960938,45.808594 38.101562,44.992188 37.066406,45 Z m 0,0"
       id="path26" />
    <path
       style="fill:#cacaca;fill-opacity:1;fill-rule:nonzero;stroke:none"
       d="m 44.386719,45 h -1.367188 c -0.511719,-0.0039 -1.003906,0.195312 -1.367187,0.558594 -0.363282,0.359375 -0.566406,0.847656 -0.566406,1.363281 v 2.398437 c 0,1.066407 0.867187,1.933594 1.933593,1.933594 h 1.367188 c 0.511719,0 1,-0.203125 1.359375,-0.566406 0.363281,-0.363281 0.5625,-0.855469 0.558594,-1.367188 V 46.921875 C 46.304688,45.859375 45.445312,45 44.386719,45 Z m 0,0"
       id="path28" />
    <path
       style="fill:#cacaca;fill-opacity:1;fill-rule:nonzero;stroke:none"
       d="m 51.691406,45 h -1.367187 c -1.058594,0 -1.917969,0.859375 -1.917969,1.921875 v 2.398437 c -0.0039,0.511719 0.195312,1.003907 0.554688,1.367188 0.363281,0.363281 0.851562,0.566406 1.363281,0.566406 h 1.367187 c 0.511719,0 1,-0.203125 1.363282,-0.566406 0.359374,-0.363281 0.558593,-0.855469 0.554687,-1.367188 V 46.921875 C 53.609375,45.859375 52.75,45 51.691406,45 Z m 0,0"
       id="path30" />
    <path
       style="fill:#cacaca;fill-opacity:1;fill-rule:nonzero;stroke:none"
       d="m 58.996094,45 h -1.351563 c -0.511719,-0.0039 -1.003906,0.195312 -1.367187,0.558594 -0.363282,0.359375 -0.566406,0.847656 -0.566406,1.363281 v 2.398437 c 0,1.066407 0.867187,1.933594 1.933593,1.933594 h 1.351563 c 1.066406,0 1.933594,-0.867187 1.933594,-1.933594 v -2.398437 c 0,-0.515625 -0.203126,-1.003906 -0.566407,-1.363281 C 60,45.195312 59.507812,44.996094 58.996094,45 Z m 0,0"
       id="path32" />
    <path
       style="fill:#cacaca;fill-opacity:1;fill-rule:nonzero;stroke:none"
       d="m 70.035156,45 h -5.296875 c -0.511719,-0.0039 -1.003906,0.195312 -1.367187,0.558594 -0.363282,0.359375 -0.566406,0.847656 -0.566406,1.363281 v 2.398437 c 0,1.066407 0.867187,1.933594 1.933593,1.933594 h 5.296875 c 0.53125,0.01563 1.046875,-0.195312 1.417969,-0.574218 0.375,-0.382813 0.570313,-0.902344 0.546875,-1.433594 V 46.84375 C 71.960938,45.796875 71.085938,44.976562 70.035156,45 Z m 0,0"
       id="path34" />
    <path
       style="fill:#eb3f78;fill-opacity:1;fill-rule:nonzero;stroke:none"
       d="m 29.414062,45 h -3.675781 c -1.058593,0 -1.917969,0.859375 -1.917969,1.921875 v 2.398437 c -0.0039,0.511719 0.195313,1.003907 0.558594,1.367188 0.359375,0.363281 0.847656,0.566406 1.359375,0.566406 h 3.675781 c 1.070313,0 1.9375,-0.867187 1.9375,-1.933594 v -2.398437 c 0,-0.515625 -0.207031,-1.003906 -0.570312,-1.363281 C 30.417969,45.195312 29.925781,44.996094 29.414062,45 Z m 0,0"
       id="path36" />
  </g>
</svg>
